.
..............................Site Info...........................

 -   http://www.scenetime.com  *_*    

Scenetime .Always on time . friendly online private torrent community ..

     We care to share . Join us on  http://www.scenetime.com 

    Be the first to get new release at  http://www.scenetime.com

        Seed back for speed


...................................NFO:.................................................[IMG]http://i.imgur.com/B3JnM.jpg[/IMG]


[color=blue][size=4][b]Reeker.2.No.Mans.Land.2012.DVDRip.XVID.AC3.HQ.Hive-CM8[/b][/size][/color]


[b]Thx Hive

CM8 Doing It Right The First Time :D


Source: DVDR THC
thx

Encode:
dvd quality was ok, didnt have the highest bitrate, but workable
did the usual
got nice
enjoy

Video: 720x400 @bitrate 1700 2pass
Audio: English AC3 5.1 @448
Sample: Yes, included[/b]
 
http://www.imdb.com/title/tt1090671/


General
Complete name                  : Reeker.2.No.Mans.Land.2012.DVDRip.XVID.AC3.HQ.Hive-CM8.avi
Format                         : AVI
Format/Info                    : Audio Video Interleave
File size                      : 1.27 GiB
Duration                       : 1h 24mn
Overall bit rate               : 2 157 Kbps
Writing application            : Nandub v1.0rc2
Writing library                : Nandub build 1853/release

Video
ID                             : 0
Format                         : MPEG-4 Visual
Format profile                 : Advanced Simple@L5
Format settings, BVOP          : 2
Format settings, QPel          : Yes
Format settings, GMC           : No warppoints
Format settings, Matrix        : Default (H.263)
Muxing mode                    : Packed bitstream
Codec ID                       : XVID
Codec ID/Hint                  : XviD
Duration                       : 1h 24mn
Bit rate                       : 1 699 Kbps
Width                          : 720 pixels
Height                         : 400 pixels
Display aspect ratio           : 16:9
Frame rate                     : 25.000 fps
Color space                    : YUV
Chroma subsampling             : 4:2:0
Bit depth                      : 8 bits
Scan type                      : Progressive
Compression mode               : Lossy
Bits/(Pixel*Frame)             : 0.236
Stream size                    : 1.00 GiB (79%)
Writing library                : XviD 1.2.1 (UTC 2008-12-04)

Audio
ID                             : 1
Format                         : AC-3
Format/Info                    : Audio Coding 3
Mode extension                 : CM (complete main)
Format settings, Endianness    : Big
Codec ID                       : 2000
Duration                       : 1h 24mn
Bit rate mode                  : Constant
Bit rate                       : 448 Kbps
Channel(s)                     : 6 channels
Channel positions              : Front: L C R, Side: L R, LFE
Sampling rate                  : 48.0 KHz
Bit depth                      : 16 bits
Compression mode               : Lossy
Stream size                    : 270 MiB (21%)
Alignment                      : Split accross interleaves
Interleave, duration           : 40 ms (1.00 video frame)
Interleave, preload duration   : 500 ms


Plot:
A sheriff and his son chase casino robbers, only to find
that all of them are being chased by something else.


Cast:
Michael Muhney   ...     Deputy Harris McAllister
Stephen Martines ...     Alex
Desmond Askew    ...     Binky
Mircea Monroe    ...     Maya


[img]http://img203.imageshack.us/img203/8020/rree.png[/img]
[img]http://img820.imageshack.us/img820/7760/rreree.png[/img]
[img]http://img88.imageshack.us/img88/9467/rrereree.png[/img]
[img]http://img42.imageshack.us/img42/492/rrerereree.png[/img]
[img]http://img27.imageshack.us/img27/1808/84017429.png[/img]



Greetz

ViSiON,SPK,SceneLovers,PRESTiGE,SANTi,3LT0N,YanKeeS,COPYxRIGHT,THC,T0XiC
D2U,LKRG,ADTRG,Feel-Free,KoDeKinG,FLAWL3SS,WBZ,BHRG,26K,NOVA,MAGNET
Unevano,BigVik,Rapeseed,SAFC,TED,goldadvance,KaN1vE,Pinnz,Wayne
Mr Hive,jtr,Limey,ICONiK,SeeN and most P2P groups
Great Work Guys :D

LOOKING FOR ANYTHING YOU WANT TO LOOK AND SOUND BETTER

CM8@hushmail.com